<svg xmlns="http://www.w3.org/2000/svg" width="800" height="400" viewBox="0 0 800 400">
  <style>
    .box { fill: #fff; stroke-width: 2px; }
    .box-bmad { stroke: #5E35B1; fill: #e8eaf6; }
    .box-cursor { stroke: #00897B; fill: #e0f2f1; }
    .box-default { stroke: #ccc; fill: #f9f9f9; }
    .arrow { stroke: #666; stroke-width: 2px; fill: none; }
    text { font-family: Arial, sans-serif; font-size: 14px; fill: #333; }
    .title { font-weight: bold; font-size: 16px; }
    
    /* Dark mode styles */
    @media (prefers-color-scheme: dark) {
      .box-default { fill: #21262d; stroke: #30363d; }
      .box-bmad { stroke: #7B61C0; fill: #372E4F; }
      .box-cursor { stroke: #26A69A; fill: #1D3B39; }
      .arrow { stroke: #aaa; }
      text { fill: #c9d1d9; }
    }
  </style>
  
  <!-- Boxes -->
  <rect x="350" y="20" width="100" height="50" rx="5" class="box box-default" />
  <rect x="350" y="90" width="100" height="50" rx="5" class="box box-bmad" />
  <rect x="350" y="160" width="100" height="50" rx="5" class="box box-bmad" />
  <rect x="350" y="230" width="100" height="50" rx="5" class="box box-cursor" />
  <rect x="350" y="300" width="100" height="50" rx="5" class="box box-cursor" />
  <rect x="350" y="370" width="100" height="50" rx="5" class="box box-default" />
  
  <!-- Arrows -->
  <path d="M400 70 L400 90" class="arrow" />
  <path d="M400 140 L400 160" class="arrow" />
  <path d="M400 210 L400 230" class="arrow" />
  <path d="M400 280 L400 300" class="arrow" />
  <path d="M400 350 L400 370" class="arrow" />
  
  <!-- Text -->
  <text x="400" y="45" text-anchor="middle" class="title">Project Idea</text>
  <text x="400" y="115" text-anchor="middle" class="title">BMAD Business Analyst</text>
  <text x="400" y="130" text-anchor="middle">Gather Requirements</text>
  <text x="400" y="185" text-anchor="middle" class="title">BMAD Architect</text>
  <text x="400" y="200" text-anchor="middle">Design System</text>
  <text x="400" y="255" text-anchor="middle" class="title">CursorRIPER Plan</text>
  <text x="400" y="270" text-anchor="middle">Implementation Strategy</text>
  <text x="400" y="325" text-anchor="middle" class="title">CursorRIPER Execute</text>
  <text x="400" y="340" text-anchor="middle">Generate Code</text>
  <text x="400" y="395" text-anchor="middle" class="title">Project Delivery</text>
</svg>